HIERARCHY
ROOT Hips
{
  OFFSET 267.745 86.9975 -272.335
  CHANNELS 6 Xposition Yposition Zposition Zrotation Xrotation Yrotation
  JOINT LeftUpLeg
  {
    OFFSET 8.64259 1.95398 -2.38835
    CHANNELS 3 Zrotation Xrotation Yrotation
    JOINT LeftLeg
    {
      OFFSET 43.7702 0 0
      CHANNELS 3 Zrotation Xrotation Yrotation
      JOINT LeftFoot
      {
        OFFSET 40.6238 0 0
        CHANNELS 3 Zrotation Xrotation Yrotation
        JOINT LeftToeBase
        {
          OFFSET 12.7242 0 0
          CHANNELS 3 Zrotation Xrotation Yrotation
          End Site
          {
            OFFSET 0 0 0
          }
        }
      }
    }
  }
  JOINT RightUpLeg
  {
    OFFSET -8.2249 1.95398 -2.59336
    CHANNELS 3 Zrotation Xrotation Yrotation
    JOINT RightLeg
    {
      OFFSET 43.5653 0 0
      CHANNELS 3 Zrotation Xrotation Yrotation
      JOINT RightFoot
      {
        OFFSET 40.6238 0 0
        CHANNELS 3 Zrotation Xrotation Yrotation
        JOINT RightToeBase
        {
          OFFSET 12.7242 0 0
          CHANNELS 3 Zrotation Xrotation Yrotation
          End Site
          {
            OFFSET 0 0 0
          }
        }
      }
    }
  }
  JOINT Spine
  {
    OFFSET 0.165834 0.87714 6.61349
    CHANNELS 3 Zrotation Xrotation Yrotation
    JOINT Spine1
    {
      OFFSET 7.38963 1.71661e-005 0
      CHANNELS 3 Zrotation Xrotation Yrotation
      JOINT Spine2
      {
        OFFSET 11.9445 1.14441e-005 0
        CHANNELS 3 Zrotation Xrotation Yrotation
        JOINT Spine3
        {
          OFFSET 14.7254 4.19617e-005 0
          CHANNELS 3 Zrotation Xrotation Yrotation
          JOINT Spine4
          {
            OFFSET 10.9679 0 0
            CHANNELS 3 Zrotation Xrotation Yrotation
            JOINT RightShoulder
            {
              OFFSET 2.46616 -1.6653 3.69651
              CHANNELS 3 Zrotation Xrotation Yrotation
              JOINT RightArm
              {
                OFFSET 13.0012 0 0
                CHANNELS 3 Zrotation Xrotation Yrotation
                JOINT RightForeArm
                {
                  OFFSET 28.7848 1.52588e-005 0
                  CHANNELS 3 Zrotation Xrotation Yrotation
                  JOINT RightHand
                  {
                    OFFSET 26.5688 1.52588e-005 0
                    CHANNELS 3 Zrotation Xrotation Yrotation
                    End Site
                    {
                      OFFSET 0 0 0
                    }
                  }
                }
              }
            }
            JOINT LeftShoulder
            {
              OFFSET 2.38034 -1.29275 -3.7523
              CHANNELS 3 Zrotation Xrotation Yrotation
              JOINT LeftArm
              {
                OFFSET 16.3182 6.10352e-005 0
                CHANNELS 3 Zrotation Xrotation Yrotation
                JOINT LeftForeArm
                {
                  OFFSET 27.0901 0 0
                  CHANNELS 3 Zrotation Xrotation Yrotation
                  JOINT LeftHand
                  {
                    OFFSET 24.5451 1.52588e-005 0
                    CHANNELS 3 Zrotation Xrotation Yrotation
                    End Site
                    {
                      OFFSET 0 0 0
                    }
                  }
                }
              }
            }
            JOINT Neck
            {
              OFFSET 5.0226 -0.0266342 0
              CHANNELS 3 Zrotation Xrotation Yrotation
              JOINT Head
              {
                OFFSET 6.69364 2.86102e-005 0
                CHANNELS 3 Zrotation Xrotation Yrotation
                End Site
                {
                  OFFSET 0 0 0
                }
              }
            }
          }
        }
      }
    }
  }
}
MOTION
Frames:	7
Frame Time:	0.0416667
-27.5105 95.1849 34.2641 98.9109 25.7458 90.2036 -178.823 -2.63248 86.3869 -27.3216 26.5262 5.57138 67.5851 9.77186 15.3086 37.4994 -0.699027 -6.84435 176.862 18.4653 85.6151 -28.2387 -4.46305 -1.18257 57.1149 6.29644 18.8418 26.4331 1.08975 -4.45179 -0.508303 7.76767 -90.0943 11.3386 -1.0554 -0.0821054 -0.331955 -1.05799 -0.0355767 -22.8702 -0.981913 -0.395531 -2.85753 -0.981914 -0.395532 102.031 -51.9989 -82.3734 33.5611 -3.2466 3.50351 -6.03853 -24.7001 -18.9314 -6.14914 -0.314563 0.848595 -79.8944 -48.2692 93.6842 -29.1847 10.52 -28.0584 17.6142 30.9514 -36.0133 -2.60733 -0.088927 -5.14973 -6.29418 5.17216 -6.79253 -27.828 2.14134 17.0474 
-19.9596 95.1002 32.1459 97.5543 31.4159 88.757 -178.557 -7.22793 87.2411 -25.1493 31.5336 6.17132 67.2779 10.4482 14.5775 40.4357 -1.22179 -5.69983 177.712 17.864 82.8664 -9.37014 -2.44837 -2.46368 54.3309 9.91616 25.5389 22.2945 2.29502 -4.56942 -0.521829 7.62334 -89.9641 11.6282 -1.02097 0.177816 -0.0423765 -1.01217 0.222573 -22.5807 -1.02723 -0.137285 -2.56806 -1.02721 -0.137287 102.457 -52.2186 -81.7265 34.342 -2.63131 4.67091 -5.71571 -25.0192 -18.2479 -5.95841 -0.352885 1.87651 -80.0379 -47.8884 93.4447 -28.0453 13.1287 -28.8297 18.6342 27.6033 -40.5247 -3.07665 -0.0813076 -5.77562 -7.91304 3.69264 -7.12767 -26.9064 1.12553 15.1367 
-11.8249 93.8891 30.0629 97.624 34.7083 88.3808 -179.073 -9.67386 88.629 -31.1445 32.9176 8.76366 68.6686 10.6434 12.0578 45.0222 -1.84959 -2.74363 177.642 19.3139 83.435 -13.0987 -8.04787 -1.62976 53.294 10.1026 25.8851 30.1068 -0.0355346 -3.00456 -0.491454 7.66323 -90.1225 11.546 -1.03498 -0.138304 -0.124546 -1.04005 -0.0926191 -22.6624 -0.945564 -0.442989 -2.64976 -0.945558 -0.44299 102.43 -51.7883 -81.7645 33.7596 -2.6233 3.85597 -5.6671 -25.3512 -17.9635 -6.13229 -0.339332 1.45059 -79.6505 -49.7369 94.1137 -28.6063 11.0559 -26.6123 18.628 30.4142 -38.1284 -1.49873 -0.100521 -5.39781 -7.75387 3.93641 -5.85667 -26.2574 1.40555 15.0233 
-2.94552 93.2242 27.2062 98.1452 38.11 90.1277 178.881 -9.37011 91.4385 -40.9119 29.8305 11.0328 61.807 3.1278 3.00794 53.1103 -3.2561 -5.0346 178.475 19.727 87.0959 -25.2101 -14.2028 -1.43547 53.7398 8.63749 16.9114 28.4808 0.0418866 0.318857 -0.559653 7.62372 -90.559 11.6229 -1.37516 -0.970385 -0.0475908 -1.41652 -0.908931 -22.5837 -1.01997 -1.3388 -2.57101 -1.01997 -1.3388 102.312 -51.4806 -81.9436 32.5299 -2.81414 2.71508 -4.79204 -24.4416 -17.3557 -8.43754 -0.524029 2.10643 -79.6611 -50.5122 94.1241 -32.4226 3.64106 -22.1896 13.335 38.9416 -23.5162 -0.239242 -0.0828774 -4.06298 -7.73383 4.39821 -5.32245 -27.2618 1.48592 15.9867 
4.75443 92.6674 23.9922 98.6959 43.399 90.0062 174.683 0.270073 93.4229 -58.8915 26.2594 9.4909 48.3823 -5.81058 -3.37977 53.4507 -3.20779 -4.46197 176.25 18.8338 87.8208 -36.2341 -12.0009 0.1319 62.4632 5.33879 12.8155 31.2882 -0.746994 1.86927 -0.561831 7.59593 -90.8081 11.6706 -1.4965 -1.45443 -0.000199864 -1.55905 -1.38717 -22.5324 -0.990284 -1.83687 -2.51971 -0.990273 -1.83687 102.542 -50.2769 -81.582 32.3973 -3.98807 2.14377 -4.22573 -21.5113 -18.7164 -10.9998 -0.675959 2.03978 -80.3881 -49.7494 92.9891 -36.8974 -4.93598 -19.214 3.94696 48.9631 -3.144 -2.816 -0.0949875 -3.21642 -5.88714 3.49138 -5.15387 -27.4713 0.829565 14.9392 
11.7325 93.2276 20.3079 100.699 46.0268 86.8225 175.542 11.2601 91.307 -69.827 16.6604 5.82718 50.5525 -3.36891 0.156919 50.448 -2.77766 -4.97055 175.685 13.1128 87.6766 -38.9827 -10.2882 -0.560475 67.38 3.25881 11.4281 35.8225 -1.78751 1.766 -0.128686 7.82526 -90.8029 11.2175 -0.629697 -1.53787 -0.454153 -0.696776 -1.50868 -22.9822 -0.138464 -1.65598 -2.96956 -0.138467 -1.65599 101.931 -50.0675 -82.5333 30.1672 -3.89255 -0.35162 -3.30024 -18.0271 -19.3745 -12.4304 -0.694904 1.34625 -80.5657 -50.526 92.7571 -35.7336 -7.2732 -14.943 2.77425 55.6512 -1.06968 -6.84899 -0.140003 -3.04804 -4.01621 1.4983 -5.97597 -25.6852 -0.474254 13.4862 
17.8001 94.3048 16.31 100.355 47.4941 83.9625 179.671 19.0329 87.1574 -63.4132 13.4637 3.05422 56.7539 1.62774 3.98458 46.1037 -2.08617 -3.88024 174.527 7.48611 85.2258 -36.6895 -8.6943 -1.10351 69.654 3.36063 13.5906 36.6111 -1.97589 2.13809 0.225714 7.78807 -90.5746 11.2972 0.181629 -1.16085 -0.374214 0.130367 -1.16773 -22.9058 0.522104 -1.05262 -2.8932 0.522089 -1.05262 102.358 -49.1172 -81.8627 28.71 -4.62117 -3.94748 -3.41441 -18.0993 -19.5699 -11.6441 -0.659631 1.46411 -80.3986 -51.0709 93.0348 -32.6933 -6.37145 -5.6093 6.86883 47.8437 -9.63235 -7.68125 -0.0905809 -4.42585 -3.40506 0.382746 -5.40565 -25.6118 -1.31545 11.9466 
